<svg width="300" height="150" viewBox="0 0 300 150" xmlns="http://www.w3.org/2000/svg">
  <defs>
    <linearGradient id="grad1" cx="50%" cy="50%" r="50%" fx="50%" fy="50%">
      <stop offset="50%" stop-color="darkgreen"/>
      <stop offset="90%" stop-color="green"/>
    </linearGradient>
  </defs>
  <rect width="300" height="150" fill="green"/>
<!--downhill-->
  <polygon points="70,55 150,60 220,65 205,120 65,125" fill="url(#grad1)"/>
<!--golfballs-->
  <circle cx="60" cy="85" r="5" fill="white"/>
<!--tee-->
  <g id="tee" transform="translate(120 -20)">
    <circle cx="105" cy="110" r="2" fill="yellow"/>
    <line x1="105" x2="105" y1="110" y2="118" stroke-width="2" stroke="yellow"/>
  </g>
<!--Putter 1-->
  <g fill="white" transform="scale (1.4 1.4) rotate(81, 55, 55) translate (-50 10)">
<!--Putter shaft-->
    <rect x="97" y="-24" transform="rotate(13, -5, 92)" width="2" height="49" fill="white"/>
<!--Putter grip-->
    <rect x="97" y="-2" transform="rotate(13,95, 100)" width="3" height="15" fill="white"/>
<!--Putter head-->
    <rect x="102" y="48" width="11" height="3" rx="1" ry="1" fill="white"/>
  </g>
<!--Putter 2-->
  <g fill="white" transform="scale (1.4 1.4) rotate(80, 100, 95) translate(-38 35)">
<!--Putter shaft-->
    <rect x="97" y="-24" transform="rotate(13, -5, 92)" width="2" height="49" fill="white"/>
<!--Putter grip-->
    <rect x="97" y="-2" transform="rotate(13,95, 100)" width="3" height="15" fill="white"/>
<!--Putter head-->
    <rect x="102" y="48" width="11" height="3" rx="1" ry="1" fill="white"/>
  </g>
  <text x="20" y="40" fill="white" stroke="white" font-size="18">2 x</text>
</svg>
